<svg width="142" height="135" viewBox="0 0 142 135" fill="none" xmlns="http://www.w3.org/2000/svg">
<path d="M71 133.5C109.308 133.5 140.5 104.024 140.5 67.5C140.5 30.9755 109.308 1.5 71 1.5C32.6919 1.5 1.5 30.9755 1.5 67.5C1.5 104.024 32.6919 133.5 71 133.5Z" fill="white" stroke="black" stroke-width="3"/>
<path d="M119.583 96.3333C119.583 98.6319 118.653 100.836 116.996 102.462C115.34 104.087 113.093 105 110.75 105H31.25C28.9073 105 26.6605 104.087 25.0039 102.462C23.3473 100.836 22.4167 98.6319 22.4167 96.3333V48.6667C22.4167 46.3681 23.3473 44.1637 25.0039 42.5384C26.6605 40.9131 28.9073 40 31.25 40H48.9167L57.75 27H84.25L93.0833 40H110.75C113.093 40 115.34 40.9131 116.996 42.5384C118.653 44.1637 119.583 46.3681 119.583 48.6667V96.3333Z" stroke="#1E1E1E" stroke-width="4" stroke-linecap="round" stroke-linejoin="round"/>
<path d="M71 87.6667C80.757 87.6667 88.6667 79.9063 88.6667 70.3333C88.6667 60.7604 80.757 53 71 53C61.243 53 53.3333 60.7604 53.3333 70.3333C53.3333 79.9063 61.243 87.6667 71 87.6667Z" stroke="#1E1E1E" stroke-width="4" stroke-linecap="round" stroke-linejoin="round"/>
</svg>
