<svg width="437" height="85" viewBox="0 0 437 85" fill="none" xmlns="http://www.w3.org/2000/svg">
<path d="M9.6 36V6.72H0.528V0.239997H25.968V6.72H17.04V36H9.6ZM32.6524 36V0.239997H46.3324C48.7964 0.239997 50.9724 0.671997 52.8604 1.536C54.7804 2.4 56.2844 3.68 57.3724 5.376C58.4604 7.072 59.0044 9.168 59.0044 11.664C59.0044 14.096 58.4444 16.176 57.3244 17.904C56.2044 19.6 54.7004 20.88 52.8124 21.744L60.9724 36H52.6204L43.7884 20.208L48.5884 23.04H40.0924V36H32.6524ZM40.0924 16.56H46.3804C47.4364 16.56 48.3484 16.352 49.1164 15.936C49.8844 15.52 50.4764 14.944 50.8924 14.208C51.3404 13.472 51.5644 12.624 51.5644 11.664C51.5644 10.672 51.3404 9.808 50.8924 9.072C50.4764 8.336 49.8844 7.76 49.1164 7.344C48.3484 6.928 47.4364 6.72 46.3804 6.72H40.0924V16.56ZM65.028 36L77.124 0.239997H87.012L99.108 36H90.996L88.596 28.704H75.492L73.092 36H65.028ZM77.556 22.224H86.532L81.06 5.328H83.076L77.556 22.224ZM113.502 36L101.262 0.239997H109.422L118.638 28.944H117.006L126.222 0.239997H134.382L122.142 36H113.502ZM141.074 36V0.239997H165.122V6.72H148.514V14.832H164.162V21.312H148.514V29.52H165.122V36H141.074ZM172.34 36V0.239997H179.78V29.52H194.9V36H172.34ZM201.59 36V0.239997H208.79L222.182 18H218.822L231.83 0.239997H239.03V36H231.59V8.448L234.566 9.12L220.79 26.88H219.83L206.534 9.12L209.03 8.448V36H201.59ZM245.731 36L257.827 0.239997H267.715L279.811 36H271.699L269.299 28.704H256.195L253.795 36H245.731ZM258.259 22.224H267.235L261.763 5.328H263.779L258.259 22.224ZM290.569 36V6.72H281.497V0.239997H306.937V6.72H298.009V36H290.569ZM313.621 36V0.239997H337.669V6.72H321.061V14.832H336.709V21.312H321.061V29.52H337.669V36H313.621ZM353.872 36L365.968 0.239997H375.856L387.952 36H379.84L377.44 28.704H364.336L361.936 36H353.872ZM366.4 22.224H375.376L369.904 5.328H371.92L366.4 22.224ZM394.668 36V0.239997H402.108V36H394.668Z" fill="#18181B"/>
</svg>
