<svg width="752" height="71" viewBox="0 0 752 71" fill="none" xmlns="http://www.w3.org/2000/svg">
<path d="M7.83984 31V6.6H0.279844V1.2H21.4798V6.6H14.0398V31H7.83984ZM27.5502 31V1.2H38.9502C41.0035 1.2 42.8168 1.56 44.3902 2.28C45.9902 3 47.2435 4.06667 48.1502 5.48C49.0568 6.89333 49.5102 8.64 49.5102 10.72C49.5102 12.7467 49.0435 14.48 48.1102 15.92C47.1768 17.3333 45.9235 18.4 44.3502 19.12L51.1502 31H44.1902L36.8302 17.84L40.8302 20.2H33.7502V31H27.5502ZM33.7502 14.8H38.9902C39.8702 14.8 40.6302 14.6267 41.2702 14.28C41.9102 13.9333 42.4035 13.4533 42.7502 12.84C43.1235 12.2267 43.3102 11.52 43.3102 10.72C43.3102 9.89333 43.1235 9.17333 42.7502 8.56C42.4035 7.94666 41.9102 7.46667 41.2702 7.12C40.6302 6.77333 39.8702 6.6 38.9902 6.6H33.7502V14.8ZM55.0298 31L65.1098 1.2H73.3498L83.4298 31H76.6698L74.6698 24.92H63.7498L61.7498 31H55.0298ZM65.4698 19.52H72.9498L68.3898 5.44H70.0698L65.4698 19.52ZM95.9252 31L85.7252 1.2H92.5252L100.205 25.12H98.8452L106.525 1.2H113.325L103.125 31H95.9252ZM119.402 31V1.2H139.442V6.6H125.602V13.36H138.642V18.76H125.602V25.6H139.442V31H119.402ZM145.956 31V1.2H152.156V25.6H164.756V31H145.956ZM394.422 31V25H400.422V31H394.422ZM426.777 31V6.6H419.217V1.2H440.417V6.6H432.977V31H426.777ZM446.488 31V1.2H457.888C459.941 1.2 461.754 1.56 463.328 2.28C464.928 3 466.181 4.06667 467.088 5.48C467.994 6.89333 468.448 8.64 468.448 10.72C468.448 12.7467 467.981 14.48 467.048 15.92C466.114 17.3333 464.861 18.4 463.288 19.12L470.088 31H463.128L455.768 17.84L459.768 20.2H452.688V31H446.488ZM452.688 14.8H457.928C458.808 14.8 459.568 14.6267 460.208 14.28C460.848 13.9333 461.341 13.4533 461.688 12.84C462.061 12.2267 462.248 11.52 462.248 10.72C462.248 9.89333 462.061 9.17333 461.688 8.56C461.341 7.94666 460.848 7.46667 460.208 7.12C459.568 6.77333 458.808 6.6 457.928 6.6H452.688V14.8ZM473.967 31L484.047 1.2H492.287L502.367 31H495.607L493.607 24.92H482.687L480.687 31H473.967ZM484.407 19.52H491.887L487.327 5.44H489.007L484.407 19.52ZM514.863 31L504.663 1.2H511.463L519.143 25.12H517.783L525.463 1.2H532.263L522.063 31H514.863ZM538.339 31V1.2H558.379V6.6H544.539V13.36H557.579V18.76H544.539V25.6H558.379V31H538.339ZM564.894 31V1.2H571.094V25.6H583.694V31H564.894ZM745.992 31V25H751.992V31H745.992ZM206.469 71V46.6H198.909V41.2H220.109V46.6H212.669V71H206.469ZM226.179 71V41.2H237.579C239.632 41.2 241.446 41.56 243.019 42.28C244.619 43 245.872 44.0667 246.779 45.48C247.686 46.8933 248.139 48.64 248.139 50.72C248.139 52.7467 247.672 54.48 246.739 55.92C245.806 57.3333 244.552 58.4 242.979 59.12L249.779 71H242.819L235.459 57.84L239.459 60.2H232.379V71H226.179ZM232.379 54.8H237.619C238.499 54.8 239.259 54.6267 239.899 54.28C240.539 53.9333 241.032 53.4533 241.379 52.84C241.752 52.2267 241.939 51.52 241.939 50.72C241.939 49.8933 241.752 49.1733 241.379 48.56C241.032 47.9467 240.539 47.4667 239.899 47.12C239.259 46.7733 238.499 46.6 237.619 46.6H232.379V54.8ZM253.659 71L263.739 41.2H271.979L282.059 71H275.299L273.299 64.92H262.379L260.379 71H253.659ZM264.099 59.52H271.579L267.019 45.44H268.699L264.099 59.52ZM294.554 71L284.354 41.2H291.154L298.834 65.12H297.474L305.154 41.2H311.954L301.754 71H294.554ZM318.031 71V41.2H338.071V46.6H324.231V53.36H337.271V58.76H324.231V65.6H338.071V71H318.031ZM344.585 71V41.2H350.785V65.6H363.385V71H344.585ZM369.46 71V41.2H375.46L386.62 56H383.82L394.66 41.2H400.66V71H394.46V48.04L396.94 48.6L385.46 63.4H384.66L373.58 48.6L375.66 48.04V71H369.46ZM406.745 71L416.825 41.2H425.065L435.145 71H428.385L426.385 64.92H415.465L413.465 71H406.745ZM417.185 59.52H424.665L420.105 45.44H421.785L417.185 59.52ZM444.609 71V46.6H437.049V41.2H458.249V46.6H450.809V71H444.609ZM464.32 71V41.2H484.36V46.6H470.52V53.36H483.56V58.76H470.52V65.6H484.36V71H464.32ZM498.862 71L508.942 41.2H517.182L527.262 71H520.502L518.502 64.92H507.582L505.582 71H498.862ZM509.302 59.52H516.782L512.222 45.44H513.902L509.302 59.52ZM533.359 71V41.2H539.559V71H533.359ZM550.363 71V65H556.363V71H550.363Z" fill="black"/>
<path d="M191.859 31.48C189.992 31.48 188.232 31.1467 186.579 30.48C184.952 29.7867 183.539 28.8133 182.339 27.56C181.166 26.3067 180.286 24.8267 179.699 23.12L184.779 20.84C185.526 22.4667 186.552 23.7467 187.859 24.68C189.192 25.6133 190.659 26.08 192.259 26.08C193.112 26.08 193.846 25.9467 194.459 25.68C195.072 25.4133 195.552 25.0533 195.899 24.6C196.246 24.12 196.419 23.56 196.419 22.92C196.419 22.2267 196.206 21.64 195.779 21.16C195.352 20.6533 194.686 20.2533 193.779 19.96L187.939 18.04C185.566 17.2667 183.779 16.1733 182.579 14.76C181.379 13.32 180.779 11.6 180.779 9.6C180.779 7.84 181.206 6.29333 182.059 4.96C182.939 3.62667 184.152 2.58667 185.699 1.84C187.272 1.09333 189.072 0.719999 191.099 0.719999C192.886 0.719999 194.539 1.02667 196.059 1.64C197.579 2.25333 198.886 3.12 199.979 4.24C201.099 5.36 201.939 6.70667 202.499 8.28L197.459 10.56C196.899 9.17333 196.059 8.09333 194.939 7.32C193.819 6.52 192.539 6.12 191.099 6.12C190.272 6.12 189.539 6.25333 188.899 6.52C188.259 6.78666 187.766 7.17333 187.419 7.68C187.072 8.16 186.899 8.72 186.899 9.36C186.899 10.0533 187.126 10.6667 187.579 11.2C188.032 11.7067 188.712 12.1067 189.619 12.4L195.339 14.24C197.739 15.0133 199.526 16.0933 200.699 17.48C201.899 18.8667 202.499 20.56 202.499 22.56C202.499 24.2933 202.046 25.84 201.139 27.2C200.232 28.5333 198.979 29.5867 197.379 30.36C195.806 31.1067 193.966 31.48 191.859 31.48ZM209.917 31V1.2H215.917L227.077 16H224.277L235.117 1.2H241.117V31H234.917V8.04L237.397 8.6L225.917 23.4H225.117L214.037 8.6L216.117 8.04V31H209.917ZM247.202 31L257.282 1.2H265.522L275.602 31H268.842L266.842 24.92H255.922L253.922 31H247.202ZM257.642 19.52H265.122L260.562 5.44H262.242L257.642 19.52ZM281.699 31V1.2H293.099C295.152 1.2 296.965 1.56 298.539 2.28C300.139 3 301.392 4.06667 302.299 5.48C303.205 6.89333 303.659 8.64 303.659 10.72C303.659 12.7467 303.192 14.48 302.259 15.92C301.325 17.3333 300.072 18.4 298.499 19.12L305.299 31H298.339L290.979 17.84L294.979 20.2H287.899V31H281.699ZM287.899 14.8H293.139C294.019 14.8 294.779 14.6267 295.419 14.28C296.059 13.9333 296.552 13.4533 296.899 12.84C297.272 12.2267 297.459 11.52 297.459 10.72C297.459 9.89333 297.272 9.17333 296.899 8.56C296.552 7.94666 296.059 7.46667 295.419 7.12C294.779 6.77333 294.019 6.6 293.139 6.6H287.899V14.8ZM315.957 31V6.6H308.397V1.2H329.597V6.6H322.157V31H315.957ZM335.667 31V1.2H355.707V6.6H341.867V13.36H354.907V18.76H341.867V25.6H355.707V31H335.667ZM362.222 31V1.2H373.622C375.675 1.2 377.489 1.56 379.062 2.28C380.662 3 381.915 4.06667 382.822 5.48C383.729 6.89333 384.182 8.64 384.182 10.72C384.182 12.7467 383.715 14.48 382.782 15.92C381.849 17.3333 380.595 18.4 379.022 19.12L385.822 31H378.862L371.502 17.84L375.502 20.2H368.422V31H362.222ZM368.422 14.8H373.662C374.542 14.8 375.302 14.6267 375.942 14.28C376.582 13.9333 377.075 13.4533 377.422 12.84C377.795 12.2267 377.982 11.52 377.982 10.72C377.982 9.89333 377.795 9.17333 377.422 8.56C377.075 7.94666 376.582 7.46667 375.942 7.12C375.302 6.77333 374.542 6.6 373.662 6.6H368.422V14.8Z" fill="url(#paint0_linear_26_21)"/>
<path d="M610.796 31.48C608.93 31.48 607.17 31.1467 605.516 30.48C603.89 29.7867 602.476 28.8133 601.276 27.56C600.103 26.3067 599.223 24.8267 598.636 23.12L603.716 20.84C604.463 22.4667 605.49 23.7467 606.796 24.68C608.13 25.6133 609.596 26.08 611.196 26.08C612.05 26.08 612.783 25.9467 613.396 25.68C614.01 25.4133 614.49 25.0533 614.836 24.6C615.183 24.12 615.356 23.56 615.356 22.92C615.356 22.2267 615.143 21.64 614.716 21.16C614.29 20.6533 613.623 20.2533 612.716 19.96L606.876 18.04C604.503 17.2667 602.716 16.1733 601.516 14.76C600.316 13.32 599.716 11.6 599.716 9.6C599.716 7.84 600.143 6.29333 600.996 4.96C601.876 3.62667 603.09 2.58667 604.636 1.84C606.21 1.09333 608.01 0.719999 610.036 0.719999C611.823 0.719999 613.476 1.02667 614.996 1.64C616.516 2.25333 617.823 3.12 618.916 4.24C620.036 5.36 620.876 6.70667 621.436 8.28L616.396 10.56C615.836 9.17333 614.996 8.09333 613.876 7.32C612.756 6.52 611.476 6.12 610.036 6.12C609.21 6.12 608.476 6.25333 607.836 6.52C607.196 6.78666 606.703 7.17333 606.356 7.68C606.01 8.16 605.836 8.72 605.836 9.36C605.836 10.0533 606.063 10.6667 606.516 11.2C606.97 11.7067 607.65 12.1067 608.556 12.4L614.276 14.24C616.676 15.0133 618.463 16.0933 619.636 17.48C620.836 18.8667 621.436 20.56 621.436 22.56C621.436 24.2933 620.983 25.84 620.076 27.2C619.17 28.5333 617.916 29.5867 616.316 30.36C614.743 31.1067 612.903 31.48 610.796 31.48ZM626.264 31L636.344 1.2H644.584L654.664 31H647.904L645.904 24.92H634.984L632.984 31H626.264ZM636.704 19.52H644.184L639.624 5.44H641.304L636.704 19.52ZM660.761 31V1.2H681.161V6.6H666.961V14.16H679.161V19.56H666.961V31H660.761ZM687.238 31V1.2H707.278V6.6H693.438V13.36H706.478V18.76H693.438V25.6H707.278V31H687.238ZM713.792 31V1.2H725.192C727.246 1.2 729.059 1.56 730.632 2.28C732.232 3 733.486 4.06667 734.392 5.48C735.299 6.89333 735.752 8.64 735.752 10.72C735.752 12.7467 735.286 14.48 734.352 15.92C733.419 17.3333 732.166 18.4 730.592 19.12L737.392 31H730.432L723.072 17.84L727.072 20.2H719.992V31H713.792ZM719.992 14.8H725.232C726.112 14.8 726.872 14.6267 727.512 14.28C728.152 13.9333 728.646 13.4533 728.992 12.84C729.366 12.2267 729.552 11.52 729.552 10.72C729.552 9.89333 729.366 9.17333 728.992 8.56C728.646 7.94666 728.152 7.46667 727.512 7.12C726.872 6.77333 726.112 6.6 725.232 6.6H719.992V14.8Z" fill="url(#paint1_linear_26_21)"/>
<defs>
<linearGradient id="paint0_linear_26_21" x1="-84" y1="52" x2="844" y2="52" gradientUnits="userSpaceOnUse">
<stop/>
<stop offset="0.227344" stop-color="#FD6A00"/>
<stop offset="0.512244" stop-color="#85F634"/>
<stop offset="0.512344" stop-color="#83F835"/>
<stop offset="0.8351" stop-color="#3705FF"/>
</linearGradient>
<linearGradient id="paint1_linear_26_21" x1="-84" y1="52" x2="844" y2="52" gradientUnits="userSpaceOnUse">
<stop offset="0.642344" stop-color="#F75409"/>
<stop offset="1" stop-color="#12F045"/>
</linearGradient>
</defs>
</svg>
