<svg width="949" height="112" viewBox="0 0 949 112" fill="none" xmlns="http://www.w3.org/2000/svg">
<path d="M28.1787 110V21.55H0.773711V1.97499H77.6237V21.55H50.6537V110H28.1787ZM78.5209 110V30.83H98.8209V49.825L97.3709 47.07C99.1109 40.4 101.963 35.905 105.926 33.585C109.986 31.1683 114.771 29.96 120.281 29.96H124.921V48.81H118.106C112.789 48.81 108.488 50.4533 105.201 53.74C101.914 56.93 100.271 61.4733 100.271 67.37V110H78.5209ZM158.959 111.74C153.255 111.74 148.325 110.822 144.169 108.985C140.012 107.148 136.822 104.538 134.599 101.155C132.375 97.675 131.264 93.5667 131.264 88.83C131.264 84.3833 132.279 80.4683 134.309 77.085C136.339 73.605 139.432 70.705 143.589 68.385C147.842 66.065 153.11 64.4217 159.394 63.455L183.609 59.54V75.49L163.309 79.115C160.215 79.695 157.847 80.71 156.204 82.16C154.56 83.5133 153.739 85.495 153.739 88.105C153.739 90.5217 154.657 92.4067 156.494 93.76C158.33 95.1133 160.602 95.79 163.309 95.79C166.885 95.79 170.027 95.0167 172.734 93.47C175.44 91.9233 177.519 89.845 178.969 87.235C180.515 84.5283 181.289 81.58 181.289 78.39V57.8C181.289 54.8033 180.08 52.29 177.664 50.26C175.344 48.23 172.154 47.215 168.094 47.215C164.227 47.215 160.795 48.2783 157.799 50.405C154.899 52.5317 152.772 55.335 151.419 58.815L134.019 50.55C135.565 46.1033 138.03 42.285 141.414 39.095C144.797 35.905 148.857 33.44 153.594 31.7C158.33 29.96 163.502 29.09 169.109 29.09C175.779 29.09 181.675 30.2983 186.799 32.715C191.922 35.1317 195.885 38.515 198.689 42.865C201.589 47.1183 203.039 52.0967 203.039 57.8V110H182.739V97.24L187.669 96.37C185.349 99.85 182.787 102.75 179.984 105.07C177.18 107.293 174.039 108.937 170.559 110C167.079 111.16 163.212 111.74 158.959 111.74ZM242.369 110L211.194 30.83H234.684L256.289 90.715H247.299L268.904 30.83H292.394L261.219 110H242.369ZM338.687 111.74C330.277 111.74 322.979 109.903 316.792 106.23C310.605 102.46 305.82 97.4333 302.437 91.15C299.054 84.8667 297.362 77.9067 297.362 70.27C297.362 62.3433 299.102 55.2867 302.582 49.1C306.159 42.9133 310.944 38.0317 316.937 34.455C322.93 30.8783 329.697 29.09 337.237 29.09C343.52 29.09 349.079 30.105 353.912 32.135C358.745 34.0683 362.805 36.8233 366.092 40.4C369.475 43.9767 372.037 48.1333 373.777 52.87C375.517 57.51 376.387 62.585 376.387 68.095C376.387 69.6417 376.29 71.1883 376.097 72.735C376 74.185 375.759 75.4417 375.372 76.505H316.067V60.555H363.047L352.752 68.095C353.719 63.9383 353.67 60.265 352.607 57.075C351.544 53.7883 349.659 51.2267 346.952 49.39C344.342 47.4567 341.104 46.49 337.237 46.49C333.467 46.49 330.229 47.4083 327.522 49.245C324.815 51.0817 322.785 53.7883 321.432 57.365C320.079 60.9417 319.547 65.2917 319.837 70.415C319.45 74.8617 319.982 78.7767 321.432 82.16C322.882 85.5433 325.105 88.2017 328.102 90.135C331.099 91.9717 334.724 92.89 338.977 92.89C342.844 92.89 346.13 92.1167 348.837 90.57C351.64 89.0233 353.815 86.8967 355.362 84.19L372.762 92.455C371.215 96.3217 368.75 99.705 365.367 102.605C362.08 105.505 358.165 107.777 353.622 109.42C349.079 110.967 344.1 111.74 338.687 111.74ZM389.195 110V0.234996H410.945V110H389.195ZM428.456 110V1.97499H450.206L490.661 55.625H480.511L519.806 1.97499H541.556V110H519.081V26.77L528.071 28.8L486.456 82.45H483.556L443.391 28.8L450.931 26.77V110H428.456ZM583.622 111.74C577.918 111.74 572.988 110.822 568.832 108.985C564.675 107.148 561.485 104.538 559.262 101.155C557.038 97.675 555.927 93.5667 555.927 88.83C555.927 84.3833 556.942 80.4683 558.972 77.085C561.002 73.605 564.095 70.705 568.252 68.385C572.505 66.065 577.773 64.4217 584.057 63.455L608.272 59.54V75.49L587.972 79.115C584.878 79.695 582.51 80.71 580.867 82.16C579.223 83.5133 578.402 85.495 578.402 88.105C578.402 90.5217 579.32 92.4067 581.157 93.76C582.993 95.1133 585.265 95.79 587.972 95.79C591.548 95.79 594.69 95.0167 597.397 93.47C600.103 91.9233 602.182 89.845 603.632 87.235C605.178 84.5283 605.952 81.58 605.952 78.39V57.8C605.952 54.8033 604.743 52.29 602.327 50.26C600.007 48.23 596.817 47.215 592.757 47.215C588.89 47.215 585.458 48.2783 582.462 50.405C579.562 52.5317 577.435 55.335 576.082 58.815L558.682 50.55C560.228 46.1033 562.693 42.285 566.077 39.095C569.46 35.905 573.52 33.44 578.257 31.7C582.993 29.96 588.165 29.09 593.772 29.09C600.442 29.09 606.338 30.2983 611.462 32.715C616.585 35.1317 620.548 38.515 623.352 42.865C626.252 47.1183 627.702 52.0967 627.702 57.8V110H607.402V97.24L612.332 96.37C610.012 99.85 607.45 102.75 604.647 105.07C601.843 107.293 598.702 108.937 595.222 110C591.742 111.16 587.875 111.74 583.622 111.74ZM680.372 110.87C670.802 110.87 663.358 108.308 658.042 103.185C652.822 97.965 650.212 90.715 650.212 81.435V49.68H636.872V30.83H637.597C641.657 30.83 644.75 29.815 646.877 27.785C649.1 25.755 650.212 22.71 650.212 18.65V12.85H671.962V30.83H690.522V49.68H671.962V79.985C671.962 82.6917 672.445 84.9633 673.412 86.8C674.378 88.54 675.877 89.845 677.907 90.715C679.937 91.585 682.45 92.02 685.447 92.02C686.123 92.02 686.897 91.9717 687.767 91.875C688.637 91.7783 689.555 91.6817 690.522 91.585V110C689.072 110.193 687.428 110.387 685.592 110.58C683.755 110.773 682.015 110.87 680.372 110.87ZM741.402 111.74C732.992 111.74 725.694 109.903 719.507 106.23C713.32 102.46 708.535 97.4333 705.152 91.15C701.769 84.8667 700.077 77.9067 700.077 70.27C700.077 62.3433 701.817 55.2867 705.297 49.1C708.874 42.9133 713.659 38.0317 719.652 34.455C725.645 30.8783 732.412 29.09 739.952 29.09C746.235 29.09 751.794 30.105 756.627 32.135C761.46 34.0683 765.52 36.8233 768.807 40.4C772.19 43.9767 774.752 48.1333 776.492 52.87C778.232 57.51 779.102 62.585 779.102 68.095C779.102 69.6417 779.005 71.1883 778.812 72.735C778.715 74.185 778.474 75.4417 778.087 76.505H718.782V60.555H765.762L755.467 68.095C756.434 63.9383 756.385 60.265 755.322 57.075C754.259 53.7883 752.374 51.2267 749.667 49.39C747.057 47.4567 743.819 46.49 739.952 46.49C736.182 46.49 732.944 47.4083 730.237 49.245C727.53 51.0817 725.5 53.7883 724.147 57.365C722.794 60.9417 722.262 65.2917 722.552 70.415C722.165 74.8617 722.697 78.7767 724.147 82.16C725.597 85.5433 727.82 88.2017 730.817 90.135C733.814 91.9717 737.439 92.89 741.692 92.89C745.559 92.89 748.845 92.1167 751.552 90.57C754.355 89.0233 756.53 86.8967 758.077 84.19L775.477 92.455C773.93 96.3217 771.465 99.705 768.082 102.605C764.795 105.505 760.88 107.777 756.337 109.42C751.794 110.967 746.815 111.74 741.402 111.74ZM811.584 110L848.124 1.97499H877.994L914.534 110H890.029L882.779 87.96H843.194L835.944 110H811.584ZM849.429 68.385H876.544L860.014 17.345H866.104L849.429 68.385ZM925.76 110V1.97499H948.235V110H925.76Z" fill="url(#paint0_linear_1_94)"/>
<defs>
<linearGradient id="paint0_linear_1_94" x1="832" y1="66" x2="460.333" y2="-341.659" gradientUnits="userSpaceOnUse">
<stop stop-color="#17940E"/>
<stop offset="0.263244" stop-color="#FFD641"/>
<stop offset="0.594486" stop-color="#E39D0C"/>
<stop offset="0.663026" stop-color="#DD9000"/>
<stop offset="0.857025" stop-color="#931802"/>
</linearGradient>
</defs>
</svg>
