<svg width="916" height="108" viewBox="0 0 916 108" fill="none" xmlns="http://www.w3.org/2000/svg">
<path d="M26.707 106V20.6H0.247031V1.69999H74.447V20.6H48.407V106H26.707ZM75.3133 106V29.56H94.9133V47.9L93.5133 45.24C95.1933 38.8 97.9466 34.46 101.773 32.22C105.693 29.8867 110.313 28.72 115.633 28.72H120.113V46.92H113.533C108.4 46.92 104.247 48.5067 101.073 51.68C97.8999 54.76 96.3133 59.1467 96.3133 64.84V106H75.3133ZM152.977 107.68C147.471 107.68 142.711 106.793 138.697 105.02C134.684 103.247 131.604 100.727 129.457 97.46C127.311 94.1 126.237 90.1333 126.237 85.56C126.237 81.2667 127.217 77.4867 129.177 74.22C131.137 70.86 134.124 68.06 138.137 65.82C142.244 63.58 147.331 61.9933 153.397 61.06L176.777 57.28V72.68L157.177 76.18C154.191 76.74 151.904 77.72 150.317 79.12C148.731 80.4267 147.937 82.34 147.937 84.86C147.937 87.1933 148.824 89.0133 150.597 90.32C152.371 91.6267 154.564 92.28 157.177 92.28C160.631 92.28 163.664 91.5333 166.277 90.04C168.891 88.5467 170.897 86.54 172.297 84.02C173.791 81.4067 174.537 78.56 174.537 75.48V55.6C174.537 52.7067 173.371 50.28 171.037 48.32C168.797 46.36 165.717 45.38 161.797 45.38C158.064 45.38 154.751 46.4067 151.857 48.46C149.057 50.5133 147.004 53.22 145.697 56.58L128.897 48.6C130.391 44.3067 132.771 40.62 136.037 37.54C139.304 34.46 143.224 32.08 147.797 30.4C152.371 28.72 157.364 27.88 162.777 27.88C169.217 27.88 174.911 29.0467 179.857 31.38C184.804 33.7133 188.631 36.98 191.337 41.18C194.137 45.2867 195.537 50.0933 195.537 55.6V106H175.937V93.68L180.697 92.84C178.457 96.2 175.984 99 173.277 101.24C170.571 103.387 167.537 104.973 164.177 106C160.817 107.12 157.084 107.68 152.977 107.68ZM233.511 106L203.411 29.56H226.091L246.951 87.38H238.271L259.131 29.56H281.811L251.711 106H233.511ZM326.508 107.68C318.388 107.68 311.342 105.907 305.368 102.36C299.395 98.72 294.775 93.8667 291.508 87.8C288.242 81.7333 286.608 75.0133 286.608 67.64C286.608 59.9867 288.288 53.1733 291.648 47.2C295.102 41.2267 299.722 36.5133 305.508 33.06C311.295 29.6067 317.828 27.88 325.108 27.88C331.175 27.88 336.542 28.86 341.208 30.82C345.875 32.6867 349.795 35.3467 352.968 38.8C356.235 42.2533 358.708 46.2667 360.388 50.84C362.068 55.32 362.908 60.22 362.908 65.54C362.908 67.0333 362.815 68.5267 362.628 70.02C362.535 71.42 362.302 72.6333 361.928 73.66H304.668V58.26H350.028L340.088 65.54C341.022 61.5267 340.975 57.98 339.948 54.9C338.922 51.7267 337.102 49.2533 334.488 47.48C331.968 45.6133 328.842 44.68 325.108 44.68C321.468 44.68 318.342 45.5667 315.728 47.34C313.115 49.1133 311.155 51.7267 309.848 55.18C308.542 58.6333 308.028 62.8333 308.308 67.78C307.935 72.0733 308.448 75.8533 309.848 79.12C311.248 82.3867 313.395 84.9533 316.288 86.82C319.182 88.5933 322.682 89.48 326.788 89.48C330.522 89.48 333.695 88.7333 336.308 87.24C339.015 85.7467 341.115 83.6933 342.608 81.08L359.408 89.06C357.915 92.7933 355.535 96.06 352.268 98.86C349.095 101.66 345.315 103.853 340.928 105.44C336.542 106.933 331.735 107.68 326.508 107.68ZM375.274 106V0.0199959H396.274V106H375.274ZM413.181 106V1.69999H434.181L473.241 53.5H463.441L501.381 1.69999H522.381V106H500.681V25.64L509.361 27.6L469.181 79.4H466.381L427.601 27.6L434.881 25.64V106H413.181ZM562.997 107.68C557.49 107.68 552.73 106.793 548.717 105.02C544.703 103.247 541.623 100.727 539.477 97.46C537.33 94.1 536.257 90.1333 536.257 85.56C536.257 81.2667 537.237 77.4867 539.197 74.22C541.157 70.86 544.143 68.06 548.157 65.82C552.263 63.58 557.35 61.9933 563.417 61.06L586.797 57.28V72.68L567.197 76.18C564.21 76.74 561.923 77.72 560.337 79.12C558.75 80.4267 557.957 82.34 557.957 84.86C557.957 87.1933 558.843 89.0133 560.617 90.32C562.39 91.6267 564.583 92.28 567.197 92.28C570.65 92.28 573.683 91.5333 576.297 90.04C578.91 88.5467 580.917 86.54 582.317 84.02C583.81 81.4067 584.557 78.56 584.557 75.48V55.6C584.557 52.7067 583.39 50.28 581.057 48.32C578.817 46.36 575.737 45.38 571.817 45.38C568.083 45.38 564.77 46.4067 561.877 48.46C559.077 50.5133 557.023 53.22 555.717 56.58L538.917 48.6C540.41 44.3067 542.79 40.62 546.057 37.54C549.323 34.46 553.243 32.08 557.817 30.4C562.39 28.72 567.383 27.88 572.797 27.88C579.237 27.88 584.93 29.0467 589.877 31.38C594.823 33.7133 598.65 36.98 601.357 41.18C604.157 45.2867 605.557 50.0933 605.557 55.6V106H585.957V93.68L590.717 92.84C588.477 96.2 586.003 99 583.297 101.24C580.59 103.387 577.557 104.973 574.197 106C570.837 107.12 567.103 107.68 562.997 107.68ZM656.411 106.84C647.171 106.84 639.984 104.367 634.851 99.42C629.811 94.38 627.291 87.38 627.291 78.42V47.76H614.411V29.56H615.111C619.031 29.56 622.017 28.58 624.071 26.62C626.217 24.66 627.291 21.72 627.291 17.8V12.2H648.291V29.56H666.211V47.76H648.291V77.02C648.291 79.6333 648.757 81.8267 649.691 83.6C650.624 85.28 652.071 86.54 654.031 87.38C655.991 88.22 658.417 88.64 661.311 88.64C661.964 88.64 662.711 88.5933 663.551 88.5C664.391 88.4067 665.277 88.3133 666.211 88.22V106C664.811 106.187 663.224 106.373 661.451 106.56C659.677 106.747 657.997 106.84 656.411 106.84ZM715.336 107.68C707.216 107.68 700.17 105.907 694.196 102.36C688.223 98.72 683.603 93.8667 680.336 87.8C677.07 81.7333 675.436 75.0133 675.436 67.64C675.436 59.9867 677.116 53.1733 680.476 47.2C683.93 41.2267 688.55 36.5133 694.336 33.06C700.123 29.6067 706.656 27.88 713.936 27.88C720.003 27.88 725.37 28.86 730.036 30.82C734.703 32.6867 738.623 35.3467 741.796 38.8C745.063 42.2533 747.536 46.2667 749.216 50.84C750.896 55.32 751.736 60.22 751.736 65.54C751.736 67.0333 751.643 68.5267 751.456 70.02C751.363 71.42 751.13 72.6333 750.756 73.66H693.496V58.26H738.856L728.916 65.54C729.85 61.5267 729.803 57.98 728.776 54.9C727.75 51.7267 725.93 49.2533 723.316 47.48C720.796 45.6133 717.67 44.68 713.936 44.68C710.296 44.68 707.17 45.5667 704.556 47.34C701.943 49.1133 699.983 51.7267 698.676 55.18C697.37 58.6333 696.856 62.8333 697.136 67.78C696.763 72.0733 697.276 75.8533 698.676 79.12C700.076 82.3867 702.223 84.9533 705.116 86.82C708.01 88.5933 711.51 89.48 715.616 89.48C719.35 89.48 722.523 88.7333 725.136 87.24C727.843 85.7467 729.943 83.6933 731.436 81.08L748.236 89.06C746.743 92.7933 744.363 96.06 741.096 98.86C737.923 101.66 734.143 103.853 729.756 105.44C725.37 106.933 720.563 107.68 715.336 107.68Z" fill="url(#paint0_linear_1_94)"/>
<path d="M783.099 106L818.379 1.69999H847.219L882.499 106H858.839L851.839 84.72H813.619L806.619 106H783.099ZM819.639 65.82H845.819L829.859 16.54H835.739L819.639 65.82ZM893.338 106V1.69999H915.038V106H893.338Z" fill="url(#paint1_linear_1_94)"/>
<defs>
<linearGradient id="paint0_linear_1_94" x1="646.323" y1="91.4516" x2="433.167" y2="-287.508" gradientUnits="userSpaceOnUse">
<stop offset="0.0373438" stop-color="#2500DD"/>
<stop offset="1" stop-color="#FF2600"/>
</linearGradient>
<linearGradient id="paint1_linear_1_94" x1="646.323" y1="91.4516" x2="1061.64" y2="227.783" gradientUnits="userSpaceOnUse">
<stop stop-color="#FF00B8"/>
<stop offset="0.518841" stop-color="#004BDD"/>
<stop offset="1" stop-color="#8F00FF"/>
</linearGradient>
</defs>
</svg>
