<svg width="192" height="97" viewBox="0 0 192 97" fill="none" xmlns="http://www.w3.org/2000/svg">
<path d="M19.8 83.7005H79.2C84.6676 83.7005 89.1 79.3176 89.1 73.911V19.0899C89.1 13.6834 84.6676 9.30048 79.2 9.30048H19.8C14.3324 9.30048 9.89999 13.6834 9.89999 19.0899V73.911C9.89999 79.3176 14.3324 83.7005 19.8 83.7005Z" stroke="black" stroke-width="2" stroke-linecap="round" stroke-linejoin="round"/>
<path d="M24.75 60.45H74.25L57.75 33.325L45.375 50.7625L37.125 43.0125L24.75 60.45Z" stroke="black" stroke-width="2" stroke-linecap="round" stroke-linejoin="round"/>
<path d="M175 70.0283V78.1894C175 79.1553 174.619 79.9763 173.856 80.6525C173.093 81.3286 172.167 81.6667 171.077 81.6667H110.923C109.833 81.6667 108.907 81.3286 108.144 80.6525C107.381 79.9763 107 79.1553 107 78.1894V70.0283C107 69.0624 107.381 68.2414 108.144 67.5652C108.907 66.8891 109.833 66.551 110.923 66.551H125.454C127.212 66.551 128.708 67.6168 129.894 68.7974C130.292 69.1937 130.745 69.5557 131.254 69.8834C132.602 70.7527 134.107 71.1874 135.769 71.1874H146.231C147.893 71.1874 149.398 70.7527 150.746 69.8834C151.255 69.5557 151.708 69.1937 152.106 68.7974C153.292 67.6168 154.788 66.551 156.546 66.551H171.077C172.167 66.551 173.093 66.8891 173.856 67.5652C174.619 68.2414 175 69.0624 175 70.0283ZM161.186 35.9148C160.723 36.8807 159.919 37.3636 158.775 37.3636H148.314V53.5909C148.314 54.2187 148.055 54.7621 147.537 55.2209C147.019 55.6797 146.406 55.9091 145.698 55.9091H135.237C134.528 55.9091 133.915 55.6797 133.398 55.2209C132.88 54.7621 132.621 54.2187 132.621 53.5909V37.3636H122.16C121.015 37.3636 120.212 36.8807 119.749 35.9148C119.285 34.973 119.476 34.1399 120.321 33.4155L138.628 17.1882C139.119 16.7294 139.732 16.5 140.467 16.5C141.203 16.5 141.816 16.7294 142.306 17.1882L160.614 33.4155C161.459 34.1399 161.649 34.973 161.186 35.9148Z" stroke="black" stroke-width="2" stroke-linejoin="round"/>
</svg>
